# xmcd
#
# Track frame offsets:
# 150
# 11236
# 26079
# 40618
# 64291
# 83688
# 105739
# 124325
# 142106
# 166253
# 190839
#
# Disc length: 2690 seconds
#
#
# Revision: 0
# Processed by: cddbd v1.5.1PL0 Copyright (c) Steve Scherf et al.
# Submitted via: FreeRIP 2.70 
#
DISCID=950a800b
DTITLE=The New Mexican Revolution - The Promise of Mutiny
DYEAR=1900
DGENRE=
TTITLE0=Shaky Ground
TTITLE1=Midwest Sun
TTITLE2=Follow Up My Nines
TTITLE3=Cheap Wine
TTITLE4=The Give Away
TTITLE5=Tramp and A Boxcar
TTITLE6=Paranoid (And It Might Be True)
TTITLE7=Dusty Ol' Town
TTITLE8=Selling the Act
TTITLE9=I Lost Again
TTITLE10=Phlip
EXTD=
EXTT0=
EXTT1=
EXTT2=
EXTT3=
EXTT4=
EXTT5=
EXTT6=
EXTT7=
EXTT8=
EXTT9=
EXTT10=
PLAYORDER=
